# xmcd CD database file generated by Grip 3.1.4
# 
# Track frame offsets:
#       150
#       19191
#       31593
# 
# Disc length: 726 seconds
# 
# Revision: 1
# Processed by: cddbd v1.5PL3 Copyright (c) Steve Scherf et al.
# Submitted via: Grip 3.1.4
# 
DISCID=1502d403
DTITLE=cLOUDDEAD - dead dogs two
DYEAR=2004
DGENRE=Hip-Hop
TTITLE0=dead dogs two (with josiah)
TTITLE1=mulholland instrumental (with jerry jel logan and jordan dalrymple)
TTITLE2=dead dogs two (remixed by boards of canada)
EXTD=ID3G: 0
EXTT0=
EXTT1=
EXTT2=
PLAYORDER=
